<?xml version="1.0" encoding="utf-8"?>
<!-- Generator: Adobe Illustrator 16.0.0, SVG Export Plug-In . SVG Version: 6.00 Build 0)  -->
<!DOCTYPE svg PUBLIC "-//W3C//DTD SVG 1.1//EN" "http://www.w3.org/Graphics/SVG/1.1/DTD/svg11.dtd">
<svg version="1.1" id="Layer_1" xmlns="http://www.w3.org/2000/svg" xmlns:xlink="http://www.w3.org/1999/xlink" x="0px" y="0px"
	 width="1224px" height="792px" viewBox="0 0 1224 792" enable-background="new 0 0 1224 792" xml:space="preserve">
<path fill="none" stroke="#414042" stroke-width="7" stroke-miterlimit="10" d="M848.25,180.85
	c123.713,3.042,247.479,6.042,371.423,7.412"/>
<path fill="none" stroke="#414042" stroke-width="7" stroke-miterlimit="10" d="M67.92,1.121
	c2.439,134.469,7.439,269.469,9.439,403.469c0,22,2,44,4,66c0,3,2,7,2,10c8,71,20,139,46,205c4,10,9,20,16,29c27,34,74,40,113,28
	c4-1,7-3,11-4c38-18,60-56,73-95c1-5,2-9,3-14c0-1,2-3,2-4c14-56,22-110,27-167c2-23,2-45,4-68c1-19,1-39,2-58c0-27,1-54-1-81
	c-1-21-3-45,13-61c13-12,30-15,47-14c61,0,122,2,183.199,4.441"/>
<path fill="none" stroke="#414042" stroke-width="7" stroke-miterlimit="10" d="M847.827,194.365
	c124.136,4.526,247.902,4.526,371.943,6.522"/>
<path fill="none" stroke="#414042" stroke-width="7" stroke-miterlimit="10" d="M52.045,0.432
	C56.359,152.59,57.359,304.59,62.359,456.59c1,14,3,28,5,42c1,5,2,9,3,14c10,72,24,141,59,206c2,4,5,7,7,10c8,10,18,16,29,21
	c32,13,67,17,100,5c7-3,14-6,21-10c14-8,24-18,35-30c22-27,32-58,41-91c9-37,16-72,21-109c11-87,12-173,11-259c-1-16,0-33,10-47
	c3-3,6-6,9-8c15-9,32-11,48-10c54,0,107,1,161.372,3.094"/>
<path fill="none" stroke="#414042" stroke-width="7" stroke-miterlimit="10" d="M848.214,211.038
	c86.385,1.854,173.567,2.854,259.971,5.854c24.131,0,49.039,1,73.17-1c12.455-1,25.688,1,38.416,0.996"/>
<path fill="none" stroke="#414042" stroke-width="7" stroke-miterlimit="10" d="M35.378,1.201
	C41.359,161.59,40.359,320.59,46.359,480.59c10,59,18,119,38,177c1,3,1,6,2,9s3,5,4,8c7,22,16,42,29,62c5,7,10,13,16,18c2,2,5,3,7,4
	c1,1,2,2,3,3c60,31,138,23,184-30c4-5,8-10,12-15c7-10,12-20,17-30c1-2,0-3,1-5c8-16,12-32,16-49c0-1,2-3,2-4c32-125,31-248,32-373
	c0-13,5-26,16-35c12-9,27-12,42-12c51-2,103,2,154.207,1.373"/>
<path fill="none" stroke="#414042" stroke-width="7" stroke-miterlimit="10" d="M847.911,224.403
	c124.052,2.488,247.818,4.488,371.762,6.483"/>
<path fill="none" stroke="#414042" stroke-width="7" stroke-miterlimit="10" d="M17.919,0.747
	c4.44,161.843,8.44,322.843,12.44,484.843c0,8,3,16,3,24c1,10,4,19,6,29c9,55,19,106,42,156c1,2,1,5,2,7c14,32,31,65,65,78
	c6,2,11,4,17,6c10,3,20,4,31,6c4,1,9,0,13,1c24,2,46-2,69-9c4-1,7-3,11-4c22-10,40-24,56-42c4-4,6-9,10-13c21-32,31-65,40-102
	c7-29,13-56,17-85c0-5,1-9,1-14c0-3,2-6,2-9c8-81,10-160,9-240c-1-14,3-29,16-39c10-7,21-10,33-12c50-6,99,2,148.481-0.046"/>
<g>
	<rect x="621.566" y="176.758" fill="none" width="225.269" height="89.989"/>
	<path fill="#414042" d="M660.255,182.611h-25.634v16.046h19.378v4.964h-19.378v19.174h26.109v4.964h-32.024v-50.111h31.549V182.611
		z"/>
	<path fill="#414042" d="M707.377,227.758h-7.547l-15.706-30.325c-2.788-5.439-4.556-9.315-7.14-14.618h-1.02
		c0.067,5.644,0.271,10.538,0.271,16.114v28.829h-5.507v-50.111h9.179l14.347,28.081c2.924,5.644,4.691,9.995,7.071,15.026h1.088
		c-0.204-5.371-0.544-10.538-0.544-16.454v-26.653h5.507V227.758z"/>
	<path fill="#414042" d="M754.434,182.678h-15.707v45.08h-5.982v-45.08h-15.571v-5.031h37.261V182.678z"/>
	<path fill="#414042" d="M795.777,182.611h-25.634v16.046h19.378v4.964h-19.378v19.174h26.109v4.964h-32.024v-50.111h31.549V182.611
		z"/>
	<path fill="#414042" d="M823.114,177.647c11.83,0,17.202,4.827,17.202,13.123c0,6.188-3.536,11.015-10.607,12.646l11.967,24.342
		h-6.527l-11.015-23.39h-12.103v23.39h-5.779v-50.111H823.114z M812.031,199.745h10.335c8.363,0,11.898-3.264,11.898-8.907
		c0-5.439-3.128-8.431-11.491-8.431h-10.742V199.745z"/>
</g>
</svg>
