<?xml version="1.0" encoding="utf-8"?>
<!-- Generator: Adobe Illustrator 16.0.0, SVG Export Plug-In . SVG Version: 6.00 Build 0)  -->
<!DOCTYPE svg PUBLIC "-//W3C//DTD SVG 1.1//EN" "http://www.w3.org/Graphics/SVG/1.1/DTD/svg11.dtd">
<svg version="1.1" id="Layer_1" xmlns="http://www.w3.org/2000/svg" xmlns:xlink="http://www.w3.org/1999/xlink" x="0px" y="0px"
	 width="1286.821px" height="792px" viewBox="0 0 1286.821 792" enable-background="new 0 0 1286.821 792" xml:space="preserve">
<path fill="none" stroke="#414042" stroke-width="7" stroke-miterlimit="10" d="M58.052-1.908
	c1.686,67.002,7.688,284.105,8.477,351.122c0.449,38.163-0.375,76.854,4.653,114.765c10.096,76.127,21.961,160.193,54.168,230.545
	c7.239,15.814,19.425,30.271,35.176,37.977c30.786,15.062,70.067,17.961,100.925,1.758c64.67-33.961,76.909-111.068,89.27-176.426
	c12.885-68.129,16.905-140.188,18.517-209.455c0.616-26.457,1.676-52.795,0.645-79.25c2.479-28.521-9.53-74.809,24.459-89.214
	c29.696-12.584,64.953-4.438,96.069-5.059c18.56-0.371,56.604,0.671,78.19,1.423c35.802,1.246,87.13,3.917,122.869,3.558
	c88.863-0.894,163.848,4.638,252.717,4.27c35.083-0.146,201.323,1.405,235.531,2.828"/>
<path fill="none" stroke="#414042" stroke-width="7" stroke-miterlimit="10" d="M42.177-2.597
	c1.856,66.886,7.174,298.656,8.042,365.556c0.494,38.098-0.412,76.724,5.122,114.571c11.111,75.992,24.171,159.916,59.617,230.143
	c7.969,15.787,21.38,30.221,38.716,37.912c33.884,15.037,77.117,17.93,111.08,1.752c71.177-33.902,84.648-110.875,98.251-176.117
	c14.182-68.012,18.606-139.947,20.381-209.095c0.678-26.412,1.843-52.704,0.708-79.112c2.729-28.473-10.489-74.681,26.921-89.062
	c32.682-12.562,71.487-4.429,105.735-5.05c20.427-0.369,62.298,0.67,86.057,1.421c39.404,1.244,95.896,3.912,135.232,3.552
	c97.804-0.893,180.333,4.63,278.144,4.261c38.613-0.146,126.011,0,163.661,1.421"/>
<path fill="none" stroke="#414042" stroke-width="7" stroke-miterlimit="10" d="M25.51-1.828c2.029,66.973,7.173,315.31,8.123,382.3
	c0.54,38.147-0.451,76.823,5.598,114.718c12.145,76.098,26.42,160.127,65.167,230.447c8.709,15.807,23.37,30.26,42.319,37.965
	c37.038,15.055,84.294,17.951,121.417,1.754c77.802-33.947,92.526-111.021,107.396-176.352
	c15.502-68.102,20.337-140.129,22.277-209.369c0.74-26.446,2.016-52.774,0.775-79.217c2.983-28.511-11.464-74.779,29.426-89.177
	c35.725-12.58,78.142-4.436,115.576-5.058c22.329-0.371,68.097,0.671,94.068,1.423c43.069,1.245,104.821,3.916,147.816,3.556
	c106.907-0.894,197.118,4.636,304.033,4.268c42.206-0.146,49.188-1.296,90.342,0.126"/>
<path fill="none" stroke="#414042" stroke-width="7" stroke-miterlimit="10" d="M8.051-2.282
	c2.2,66.889,9.065,329.804,10.093,396.708c0.586,38.099-0.489,76.728,6.071,114.578c13.172,75.994,28.655,159.924,70.674,230.152
	c9.446,15.791,25.345,30.225,45.896,37.918c40.169,15.033,91.42,17.93,131.682,1.752c84.378-33.904,100.346-110.879,116.474-176.129
	c16.811-68.016,22.056-139.953,24.159-209.107c0.805-26.413,2.186-52.707,0.84-79.115c3.235-28.475-12.434-74.686,31.914-89.067
	c38.745-12.563,84.747-4.429,125.343-5.049c24.217-0.37,73.854,0.67,102.019,1.42c46.712,1.245,113.683,3.912,160.311,3.553
	c115.944-0.894,230.238,4.594,346.19,4.226"/>
<path fill="#414042" stroke="#414042" stroke-width="4" stroke-miterlimit="10" d="M317,496.932c0,41.697-21.407,68-62,68
	s-69-25.303-69-67s24.907-56.864,65.5-56.864S317,455.234,317,496.932z"/>
<path fill="none" stroke="#414042" stroke-width="7" stroke-miterlimit="10" d="M1197.445,188.524
	c23.76,0.353,47.521,0.688,71.281,1.034"/>
<path fill="none" stroke="#414042" stroke-width="7" stroke-miterlimit="10" d="M1197.283,201.135
	c24.025,2.126,48.217,1.501,72.308,1.932"/>
<path fill="none" stroke="#414042" stroke-width="7" stroke-miterlimit="10" d="M1197.16,217.345
	c24.095,0.605,48.182,1.473,72.271,2.256"/>
<path fill="none" stroke="#414042" stroke-width="7" stroke-miterlimit="10" d="M1196.41,230.825
	c24.017,0.501,48.025,1.313,72.033,2.111"/>
</svg>
