<?xml version="1.0" encoding="utf-8"?>
<!-- Generator: Adobe Illustrator 16.0.0, SVG Export Plug-In . SVG Version: 6.00 Build 0)  -->
<!DOCTYPE svg PUBLIC "-//W3C//DTD SVG 1.1//EN" "http://www.w3.org/Graphics/SVG/1.1/DTD/svg11.dtd">
<svg version="1.1" id="Layer_1" xmlns="http://www.w3.org/2000/svg" xmlns:xlink="http://www.w3.org/1999/xlink" x="0px" y="0px"
	 width="1224px" height="1263.27px" viewBox="0 0 1224 1263.27" enable-background="new 0 0 1224 1263.27" xml:space="preserve">
<path fill="none" stroke="#414042" stroke-width="7" stroke-miterlimit="10" d="M533.257,658.854
	c-36.041,0.916-152.822,4.171-188.871,4.604c-20.528,0.246-41.341-0.192-61.732,2.518c-40.948,5.439-86.167,11.833-124.006,29.166
	c-8.506,3.896-16.28,10.453-20.424,18.926c-8.099,16.562-9.652,37.692-0.933,54.289c18.275,34.782,59.754,41.356,94.912,47.997
	c36.648,6.923,75.41,9.077,112.67,9.935c14.231,0.328,28.399,0.896,42.63,0.337c15.342,1.33,40.239-5.135,47.992,13.146
	c6.772,15.972,2.395,34.938,2.733,51.676c0.201,9.984-0.355,30.448-0.756,42.06c-0.666,19.258-2.097,46.869-1.899,66.094
	c0.492,47.801-2.475,88.137-2.265,135.939c0.082,18.871-0.731,108.293-1.492,126.695"/>
<path fill="none" stroke="#414042" stroke-width="7" stroke-miterlimit="10" d="M533.625,650.315
	c-35.978,1.006-160.648,3.896-196.635,4.371c-20.493,0.271-41.271-0.213-61.629,2.769c-40.875,5.986-86.018,13.021-123.789,32.097
	c-8.49,4.289-16.253,11.504-20.389,20.831c-8.084,18.229-9.635,41.484-0.928,59.751c18.245,38.283,59.65,45.52,94.747,52.829
	c36.586,7.62,75.281,9.991,112.478,10.937c14.207,0.361,28.35,0.985,42.555,0.371c15.316,1.464,40.17-5.651,47.91,14.471
	c6.762,17.578,2.392,38.452,2.729,56.874c0.201,10.988-0.353,33.512-0.753,46.292c-0.664,21.196-2.093,51.585-1.895,72.743
	c0.492,52.611-2.469,97.004-2.258,149.617c0.083,20.771,0.016,67.783-0.744,88.035"/>
<path fill="none" stroke="#414042" stroke-width="7" stroke-miterlimit="10" d="M533.21,641.35
	c-36.025,1.1-169.607,3.897-205.643,4.416c-20.52,0.296-41.323-0.232-61.707,3.025c-40.933,6.542-86.13,14.232-123.952,35.083
	c-8.501,4.687-16.273,12.574-20.416,22.768c-8.094,19.925-9.646,45.345-0.929,65.312c18.271,41.846,59.731,49.757,94.875,57.748
	c36.634,8.33,75.379,10.923,112.624,11.957c14.226,0.396,28.389,1.078,42.611,0.407c15.337,1.602,40.224-6.176,47.973,15.817
	c6.771,19.215,2.396,42.033,2.736,62.169c0.201,12.011-0.354,36.629-0.754,50.6c-0.665,23.167-2.094,56.386-1.895,79.513
	c0.493,57.508-2.47,106.033-2.259,163.543c0.084,22.703,0.703,26.459-0.058,48.596"/>
<path fill="none" stroke="#414042" stroke-width="7" stroke-miterlimit="10" d="M533.452,631.958
	c-35.979,1.191-177.404,4.917-213.392,5.479c-20.494,0.319-41.273-0.254-61.632,3.28c-40.877,7.094-86.021,15.433-123.793,38.044
	c-8.493,5.083-16.255,13.637-20.391,24.692c-8.081,21.609-9.634,49.178-0.927,70.833c18.248,45.383,59.655,53.964,94.756,62.63
	c36.589,9.035,75.285,11.848,112.484,12.97c14.207,0.431,28.352,1.169,42.557,0.442c15.317,1.737,40.173-6.697,47.914,17.156
	c6.764,20.838,2.393,45.584,2.732,67.422c0.201,13.025-0.352,39.727-0.752,54.878c-0.664,25.127-2.091,61.151-1.892,86.233
	c0.495,62.367-2.442,123.848-2.23,186.219"/>
<path fill="none" stroke="#414042" stroke-width="7" stroke-miterlimit="10" d="M532.929,631.959
	c36.041-0.916,152.822-4.172,188.871-4.604c20.528-0.246,41.341,0.191,61.732-2.518c40.948-5.439,86.167-11.833,124.006-29.166
	c8.506-3.896,16.28-10.453,20.424-18.926c8.099-16.562,9.652-37.692,0.933-54.289c-18.275-34.783-59.754-41.357-94.912-47.998
	c-36.648-6.922-75.41-9.076-112.67-9.934c-14.231-0.328-28.399-0.896-42.63-0.338c-15.342-1.33-40.239,5.136-47.992-13.146
	c-6.772-15.972-2.395-34.938-2.733-51.676c-0.201-9.984,0.355-30.448,0.756-42.06c0.666-19.258,2.097-46.869,1.899-66.094
	c-0.492-47.801,2.475-88.137,2.265-135.939c-0.082-18.871,0.731-108.293,1.492-126.695"/>
<path fill="none" stroke="#414042" stroke-width="7" stroke-miterlimit="10" d="M532.561,641.35
	c35.978-1.007,160.648-3.896,196.635-4.371c20.493-0.271,41.271,0.213,61.629-2.77c40.875-5.986,86.018-13.021,123.789-32.097
	c8.49-4.288,16.253-11.505,20.389-20.831c8.084-18.229,9.635-41.483,0.928-59.751c-18.245-38.282-59.65-45.52-94.747-52.829
	c-36.586-7.619-75.281-9.99-112.478-10.938c-14.207-0.361-28.35-0.984-42.555-0.371c-15.316-1.464-40.17,5.652-47.91-14.47
	c-6.762-17.578-2.392-38.452-2.729-56.874c-0.201-10.988,0.353-33.512,0.753-46.292c0.664-21.196,2.093-51.585,1.895-72.743
	c-0.492-52.611,2.469-97.004,2.258-149.617c-0.083-20.771-0.016-67.783,0.744-88.035"/>
<path fill="none" stroke="#414042" stroke-width="7" stroke-miterlimit="10" d="M532.733,650.34
	c36.025-1.1,169.85-4.775,205.885-5.292c20.52-0.297,41.323,0.232,61.707-3.025c40.933-6.543,86.13-14.232,123.952-35.084
	c8.501-4.686,16.273-12.574,20.416-22.768c8.094-19.925,9.646-45.346,0.929-65.312c-18.271-41.846-59.731-49.756-94.875-57.748
	c-36.634-8.33-75.379-10.922-112.624-11.957c-14.226-0.395-28.389-1.077-42.611-0.406c-15.337-1.602-40.224,6.176-47.973-15.818
	c-6.771-19.215-2.396-42.033-2.736-62.169c-0.201-12.011,0.354-36.629,0.754-50.6c0.665-23.167,2.094-56.386,1.895-79.513
	c-0.493-57.508,2.47-106.033,2.259-163.543c-0.084-22.703-0.703-26.459,0.058-48.596"/>
<path fill="none" stroke="#414042" stroke-width="7" stroke-miterlimit="10" d="M532.733,658.854
	c35.979-1.191,177.404-4.916,213.392-5.479c20.494-0.318,41.273,0.254,61.632-3.279c40.877-7.094,86.021-15.434,123.793-38.045
	c8.493-5.083,16.255-13.637,20.391-24.691c8.081-21.609,9.634-49.179,0.927-70.834c-18.248-45.383-59.655-53.964-94.756-62.631
	c-36.589-9.035-75.285-11.847-112.484-12.969c-14.207-0.431-28.352-1.169-42.557-0.442c-15.317-1.737-40.173,6.697-47.914-17.156
	c-6.764-20.838-2.393-45.584-2.732-67.422c-0.201-13.025,0.352-39.727,0.752-54.878c0.664-25.127,2.091-61.151,1.892-86.233
	c-0.495-62.367,2.442-123.848,2.23-186.219"/>
</svg>
